<svg width="21" height="25" viewBox="0 0 21 25" fill="none" xmlns="http://www.w3.org/2000/svg">
<path d="M20.1515 10.0397L10.4915 0.429688L0.831537 10.0397C0.717564 10.1265 0.623568 10.2367 0.555915 10.363C0.488261 10.4893 0.448529 10.6286 0.439407 10.7716C0.430286 10.9146 0.451988 11.0578 0.503045 11.1917C0.554102 11.3255 0.633321 11.4468 0.73534 11.5474C0.837359 11.648 0.959796 11.7255 1.09436 11.7746C1.22893 11.8237 1.37248 11.8434 1.5153 11.8322C1.65812 11.8211 1.79688 11.7793 1.92217 11.7099C2.04747 11.6404 2.15638 11.5449 2.24154 11.4297L9.49154 4.23969V23.3697C9.49154 23.6349 9.59689 23.8893 9.78443 24.0768C9.97197 24.2643 10.2263 24.3697 10.4915 24.3697C10.7568 24.3697 11.0111 24.2643 11.1986 24.0768C11.3862 23.8893 11.4915 23.6349 11.4915 23.3697V4.23969L18.7415 11.4297C18.9298 11.6167 19.1847 11.7212 19.4501 11.7202C19.7154 11.7193 19.9696 11.613 20.1565 11.4247C20.3435 11.2364 20.448 10.9815 20.4471 10.7162C20.4462 10.4508 20.3398 10.1967 20.1515 10.0097V10.0397Z" fill="#F3EADD"/>
</svg>
