<svg width="35" height="34" viewBox="0 0 35 34" fill="none" xmlns="http://www.w3.org/2000/svg">
<path d="M17.0694 7.42782C18.8444 7.42782 20.2833 5.9889 20.2833 4.21391C20.2833 2.43892 18.8444 1 17.0694 1C15.2944 1 13.8555 2.43892 13.8555 4.21391C13.8555 5.9889 15.2944 7.42782 17.0694 7.42782Z" stroke="#482501" stroke-width="2" stroke-linecap="round" stroke-linejoin="round"/>
<path d="M14.177 2.9292C6.62434 4.21476 1 10.8033 1 18.6774C1 19.5297 1.33861 20.3472 1.94133 20.9499C2.54406 21.5527 3.36153 21.8913 4.21391 21.8913C5.06629 21.8913 5.88376 21.5527 6.48649 20.9499C7.08921 20.3472 7.42782 19.5297 7.42782 18.6774V17.0704C7.42782 16.218 7.76643 15.4006 8.36915 14.7978C8.97188 14.1951 9.78935 13.8565 10.6417 13.8565C11.4941 13.8565 12.3116 14.1951 12.9143 14.7978C13.517 15.4006 13.8556 16.218 13.8556 17.0704V23.4982C13.8556 24.3506 14.1942 25.1681 14.797 25.7708C15.3997 26.3735 16.2172 26.7121 17.0695 26.7121C17.9219 26.7121 18.7394 26.3735 19.3421 25.7708C19.9449 25.1681 20.2835 24.3506 20.2835 23.4982V17.0704C20.2835 16.218 20.6221 15.4006 21.2248 14.7978C21.8275 14.1951 22.645 13.8565 23.4974 13.8565C24.3498 13.8565 25.1672 14.1951 25.7699 14.7978C26.3727 15.4006 26.7113 16.218 26.7113 17.0704V18.6774C26.7113 19.5297 27.0499 20.3472 27.6526 20.9499C28.2553 21.5527 29.0728 21.8913 29.9252 21.8913C30.7776 21.8913 31.595 21.5527 32.1978 20.9499C32.8005 20.3472 33.1391 19.5297 33.1391 18.6774C33.1391 10.8033 27.5148 4.21476 19.9621 2.9292" stroke="#482501" stroke-width="2" stroke-linecap="round" stroke-linejoin="round"/>
<path d="M2.92822 21.5698C3.62196 24.8054 5.40427 27.7052 7.97778 29.7854C10.5513 31.8656 13.7603 33.0004 17.0694 33.0004C20.3785 33.0004 23.5876 31.8656 26.1611 29.7854C28.7346 27.7052 30.5169 24.8054 31.2106 21.5698" stroke="#482501" stroke-width="2" stroke-linecap="round" stroke-linejoin="round"/>
</svg>
