<svg width="27" height="40" viewBox="0 0 27 40" fill="none" xmlns="http://www.w3.org/2000/svg">
<path d="M26.3636 11.7643L21.9405 37.4885C21.6923 38.9152 20.4807 40 19.0209 40H7.3427C5.88292 40 4.6713 38.9152 4.42314 37.4885L0 11.7643H26.3636ZM2.57206 13.6894L6.43016 38.0748H19.9335L23.7916 13.6894H2.57206Z" fill="#482501"/>
<path d="M7.71619 36.7914H18.6475L21.5965 15.882H4.76718L7.71619 36.7914Z" fill="#482501"/>
<path d="M8.67441 1.44316L8.6691 1.45038L8.64435 1.48467C8.51569 1.66537 8.39531 1.85207 8.28361 2.04417C8.18873 2.19816 8.10538 2.35925 8.03429 2.52606C7.98831 2.63435 7.97416 2.69211 7.96886 2.71196V2.71918C7.98925 2.87873 8.04423 3.03164 8.12978 3.16678C8.2624 3.40683 8.44453 3.6577 8.67441 3.96994L8.69209 3.9916C8.90075 4.27676 9.15185 4.61788 9.34636 4.97163C9.54441 5.33259 9.73538 5.79283 9.73538 6.31623C9.73538 6.65554 9.62044 6.98041 9.52495 7.20783C9.42274 7.44981 9.30336 7.68386 9.16776 7.9081C9.02903 8.14478 8.87975 8.37484 8.72038 8.59755L8.68855 8.64268L8.67971 8.65711L8.67618 8.66072C8.53572 8.85243 8.32639 8.97934 8.09426 9.01352C7.86213 9.04771 7.6262 8.98638 7.43837 8.84301C7.25054 8.69965 7.12621 8.486 7.09272 8.24907C7.05922 8.01214 7.11931 7.77133 7.25977 7.57962L7.26508 7.5724L7.28983 7.53811C7.41849 7.35741 7.53887 7.17071 7.65057 6.97861C7.74546 6.82462 7.8288 6.66353 7.89989 6.49672C7.94587 6.38843 7.96002 6.33067 7.96532 6.31082C7.9465 6.14892 7.8921 5.99344 7.80618 5.856C7.64204 5.57598 7.45948 5.30765 7.25977 5.05284L7.24209 5.03119C7.00318 4.7195 6.78462 4.39212 6.58782 4.05116C6.34697 3.64457 6.21298 3.18145 6.1988 2.70655C6.1988 2.36724 6.31374 2.04237 6.40923 1.81496C6.51356 1.56589 6.64618 1.32043 6.76642 1.11468C6.90689 0.879129 7.05613 0.649145 7.2138 0.425226L7.258 0.362056C7.39846 0.170347 7.60779 0.0434413 7.83992 0.00925544C8.07206 -0.0249304 8.30798 0.0364044 8.49581 0.179767C8.68364 0.32313 8.80797 0.536777 8.84146 0.773709C8.87496 1.01064 8.81487 1.25145 8.67441 1.44316ZM13.9793 1.44316L13.974 1.45038L13.9492 1.48467C13.8206 1.66537 13.7002 1.85207 13.5885 2.04417C13.4936 2.19816 13.4103 2.35925 13.3392 2.52606C13.2932 2.63435 13.279 2.69211 13.2737 2.71196V2.71918C13.2941 2.87873 13.3491 3.03164 13.4347 3.16678C13.5673 3.40683 13.7494 3.6577 13.9793 3.96994L13.997 3.9916C14.2056 4.27676 14.4567 4.61788 14.6512 4.97163C14.8493 5.33259 15.0403 5.79283 15.0403 6.31623C15.0403 6.65554 14.9253 6.98041 14.8298 7.20783C14.7276 7.44981 14.6082 7.68386 14.4726 7.9081C14.3339 8.14478 14.1846 8.37484 14.0253 8.59755L13.9934 8.64268L13.9846 8.65711L13.9811 8.66072C13.8406 8.85243 13.6313 8.97934 13.3991 9.01352C13.167 9.04771 12.9311 8.98638 12.7432 8.84301C12.5554 8.69965 12.4311 8.486 12.3976 8.24907C12.3641 8.01214 12.4242 7.77133 12.5646 7.57962L12.57 7.5724L12.5947 7.53811C12.7234 7.35741 12.8437 7.17071 12.9554 6.97861C13.0503 6.82462 13.1337 6.66353 13.2048 6.49672C13.2507 6.38843 13.2649 6.33067 13.2702 6.31082C13.2514 6.14892 13.197 5.99344 13.1111 5.856C12.9469 5.57598 12.7644 5.30765 12.5646 5.05284L12.547 5.03119C12.3081 4.7195 12.0895 4.39212 11.8927 4.05116C11.6519 3.64457 11.5179 3.18145 11.5037 2.70655C11.5037 2.36724 11.6186 2.04237 11.7141 1.81496C11.8184 1.56589 11.9511 1.32043 12.0713 1.11468C12.2118 0.879129 12.361 0.649145 12.5187 0.425226L12.5629 0.362056C12.7033 0.170347 12.9127 0.0434407 13.1448 0.00925483C13.3769 -0.024931 13.6129 0.0364044 13.8007 0.179767C13.9885 0.32313 14.1128 0.536777 14.1463 0.773709C14.1798 1.01064 14.1198 1.25145 13.9793 1.44316ZM19.2842 1.44316L19.2789 1.45038L19.2541 1.48467C19.1254 1.66537 19.0051 1.85207 18.8934 2.04417C18.7985 2.19816 18.7151 2.35925 18.644 2.52606C18.5981 2.63435 18.5839 2.69211 18.5786 2.71196V2.71918C18.599 2.87873 18.654 3.03164 18.7395 3.16678C18.8722 3.40683 19.0543 3.6577 19.2842 3.96994L19.3018 3.9916C19.5105 4.27676 19.7616 4.61788 19.9561 4.97163C20.1542 5.33259 20.3451 5.79283 20.3451 6.31623C20.3451 6.65554 20.2302 6.98041 20.1347 7.20783C20.0325 7.44981 19.9131 7.68386 19.7775 7.9081C19.6394 8.14474 19.4907 8.3748 19.3319 8.59755L19.2983 8.64268L19.2895 8.65711L19.2859 8.66072C19.1455 8.85243 18.9362 8.97934 18.704 9.01352C18.4719 9.04771 18.236 8.98638 18.0481 8.84301C17.8603 8.69965 17.736 8.486 17.7025 8.24907C17.669 8.01214 17.7291 7.77133 17.8695 7.57962L17.8748 7.5724L17.8996 7.53811C18.0283 7.35741 18.1486 7.17071 18.2603 6.97861C18.3552 6.82462 18.4386 6.66353 18.5097 6.49672C18.5556 6.38843 18.5698 6.33067 18.5751 6.31082C18.5562 6.14892 18.5018 5.99344 18.4159 5.856C18.2518 5.57598 18.0692 5.30765 17.8695 5.05284L17.8518 5.03119C17.6129 4.7195 17.3944 4.39212 17.1976 4.05116C16.9567 3.64457 16.8227 3.18145 16.8086 2.70655C16.8086 2.36724 16.9235 2.04237 17.019 1.81496C17.1233 1.56589 17.2559 1.32043 17.3762 1.11468C17.5166 0.879129 17.6659 0.649145 17.8236 0.425226L17.8678 0.362056C18.0082 0.170347 18.2175 0.0434407 18.4497 0.00925483C18.6818 -0.024931 18.9177 0.0364044 19.1056 0.179767C19.2934 0.32313 19.4177 0.536777 19.4512 0.773709C19.4847 1.01064 19.4246 1.25145 19.2842 1.44316Z" fill="#482501"/>
</svg>
